<svg xmlns="http://www.w3.org/2000/svg" xmlns:xlink="http://www.w3.org/1999/xlink" viewBox="0 0 200.85 65.88"><defs><style>.cls-1,.cls-9{fill:#f0d043;}.cls-2{fill:none;}.cls-2,.cls-3,.cls-4,.cls-5,.cls-6,.cls-7,.cls-9{stroke:#000;stroke-miterlimit:10;}.cls-2,.cls-9{stroke-linecap:round;stroke-width:2px;}.cls-3{fill:#4285f4;}.cls-3,.cls-4,.cls-5,.cls-6,.cls-7{stroke-width:0.25px;}.cls-4{fill:#ea4335;}.cls-5{fill:#34a853;}.cls-6{fill:#fbbc05;}.cls-7{fill:#a2de96;}.cls-8{fill:#fcfcfc;}.cls-10{fill:url(#linear-gradient);}.cls-11{fill:url(#Áåçûìÿííûé_ãðàäèåíò_2);}.cls-12{fill:url(#linear-gradient-2);}.cls-13{fill:url(#linear-gradient-3);}.cls-14{fill:url(#linear-gradient-4);}.cls-15{fill:url(#linear-gradient-5);}.cls-16{fill:url(#linear-gradient-6);}.cls-17{fill:url(#linear-gradient-7);}.cls-18{fill:url(#linear-gradient-8);}.cls-19{fill:url(#linear-gradient-9);}.cls-20{fill:url(#linear-gradient-10);}</style><linearGradient id="linear-gradient" x1="197.34" y1="37.03" x2="186.37" y2="36.95" gradientUnits="userSpaceOnUse"><stop offset="0" stop-color="#fff"/><stop offset="0.81" stop-color="#fff"/><stop offset="1" stop-color="#fff"/></linearGradient><radialGradient id="Áåçûìÿííûé_ãðàäèåíò_2" cx="186.46" cy="31.76" r="8.46" gradientTransform="translate(9.38) scale(0.95 1)" gradientUnits="userSpaceOnUse"><stop offset="0" stop-color="#fff"/><stop offset="0.64" stop-color="#fff"/><stop offset="1" stop-color="#fff"/></radialGradient><linearGradient id="linear-gradient-2" x1="182.62" y1="35.1" x2="190.28" y2="29.81" xlink:href="#linear-gradient"/><linearGradient id="linear-gradient-3" x1="197.32" y1="38.91" x2="187.43" y2="18.15" gradientUnits="userSpaceOnUse"><stop offset="0" stop-color="#fff"/><stop offset="0.19" stop-color="#fff"/><stop offset="1" stop-color="#fff"/></linearGradient><linearGradient id="linear-gradient-4" x1="55.92" y1="31.81" x2="70" y2="31.81" gradientUnits="userSpaceOnUse"><stop offset="0" stop-color="#fff"/><stop offset="0.58" stop-color="#fff"/><stop offset="1" stop-color="#fff"/></linearGradient><linearGradient id="linear-gradient-5" x1="92.91" y1="31.71" x2="110.25" y2="31.71" xlink:href="#linear-gradient-4"/><linearGradient id="linear-gradient-6" x1="112.74" y1="31.66" x2="132.75" y2="31.66" gradientUnits="userSpaceOnUse"><stop offset="0" stop-color="#fff"/><stop offset="1" stop-color="#fff"/></linearGradient><linearGradient id="linear-gradient-7" x1="153.8" y1="31.86" x2="169.52" y2="31.86" xlink:href="#linear-gradient-6"/><linearGradient id="linear-gradient-8" x1="135.45" y1="31.96" x2="151.58" y2="31.96" xlink:href="#linear-gradient-6"/><linearGradient id="linear-gradient-9" x1="73.65" y1="32.01" x2="89.66" y2="32.01" xlink:href="#linear-gradient-4"/><linearGradient id="linear-gradient-10" x1="171.55" y1="34.48" x2="179.03" y2="28.96" xlink:href="#linear-gradient-6"/></defs><g id="Layer_2" data-name="Layer 2"><g id="Layer_1-2" data-name="Layer 1"><path class="cls-1" d="M19.29,42.63A19.41,19.41,0,0,1,13,38.25C9,33.73,8.74,25.36,12.07,19.16a19.27,19.27,0,0,1,18.79-9.8,18.33,18.33,0,0,1,9.37,4c5.84,4.65,7.46,11.73,6.7,13.91-.07.21-.17.46-.17.46a37.32,37.32,0,0,1-2.15,3.87,46.89,46.89,0,0,0-2.49,4.87,18,18,0,0,0-1.47,6.81,8.63,8.63,0,0,0,.6,2.84,7.46,7.46,0,0,0,.42.82A22.16,22.16,0,0,1,32.74,52a15.34,15.34,0,0,0-2-3.16,15.83,15.83,0,0,0-3.33-3C24.3,43.75,22.46,44,19.29,42.63Z"/><path class="cls-2" d="M28.51,49.8a13,13,0,0,0-2.17-2.65,16.9,16.9,0,0,0-5.86-3.31,20.79,20.79,0,0,1-7.56-6.42C9.23,32.51,8.74,24.3,12,18.33,17.51,8.13,33.65,5.06,41.74,12c3.73,3.2,6.78,9.41,5.48,14.55-.08.32-1.53,3.55-4.44,10-1,2.14-1.72,3.8-1.42,6S42.9,45.43,42.59,47c-.1.52-.49,1.72-5.41,4.28-4.26,2.21-7.84,3.31-7.71,3.84,0,.08.12.12.25.16,1.65.47,3.69-1.5,7.11-2.73,2.87-1,3.6-.41,3.77-.25a1.37,1.37,0,0,1,.41,1c-.24,1.44-4,1.51-6.81,3.85-.32.28-.78.7-.7,1.13.13.77,1.89,1,2,1.06,1.77.26,2.94-.57,3.22-.17s-.21.69-.66,1.61a10.87,10.87,0,0,0-.9,2.53"/><g id="Layer_2-2" data-name="Layer 2"><g id="Layer_1-2-2" data-name="Layer 1-2"><path class="cls-3" d="M16.1,24.83a5.1,5.1,0,0,1-.17-3.38c.35-1.14.81-.9,1.61-2.51s.64-1.84,1.28-2.55a5.85,5.85,0,0,1,2.51-1.6L22,14.6a7.91,7.91,0,0,0,1.43-.53,9.69,9.69,0,0,0,1.31-.79l.6,2.14a2.85,2.85,0,0,1,.54-.61,2.66,2.66,0,0,1,.77-.47,2.72,2.72,0,0,1,1.29-.2,2.84,2.84,0,0,1,.86.25,2.15,2.15,0,0,1,.7.45,1.83,1.83,0,0,1,.36.62,2.48,2.48,0,0,1,.18.66,1.67,1.67,0,0,1,0,.63,1.5,1.5,0,0,1-.13.62,2.18,2.18,0,0,1-.5.67,2.68,2.68,0,0,1-.54.47,2.41,2.41,0,0,1-2.53.15l1,3.54L24.67,23a2.9,2.9,0,0,0-.3-1.08,3.13,3.13,0,0,0-.61-1,3.33,3.33,0,0,0-2.35-1.1,3.37,3.37,0,0,0-1.47.27,3,3,0,0,0-1.73,1.77A4.15,4.15,0,0,0,18,23a3.63,3.63,0,0,0,.42,1.5l-2.27.63Z"/><path class="cls-4" d="M25.82,12.65l.28,1a4.59,4.59,0,0,1,1.45-.39,3.2,3.2,0,0,1,1,.1,3.31,3.31,0,0,1,.66.31,3.53,3.53,0,0,1,.68.46,3.33,3.33,0,0,1,.9,1.14,3.28,3.28,0,0,1,.19.68,2.7,2.7,0,0,1,0,.94,3.11,3.11,0,0,1-.35,1.23,3.35,3.35,0,0,1-1,1.08,3.63,3.63,0,0,1-1,.43,4,4,0,0,1-.84.24l.75,2.66,3.43-1,.07.26L31.8,22a1.4,1.4,0,0,0-.1.73,3.17,3.17,0,0,0,.24.85,2.47,2.47,0,0,0,.19.6,1.77,1.77,0,0,0,.63.38,1.52,1.52,0,0,0,.54.19,2.53,2.53,0,0,0,.82.1,2,2,0,0,0,.68-.19,2.25,2.25,0,0,0,.68-.33,2.81,2.81,0,0,0,.64-.69,2.05,2.05,0,0,0,.36-.42,2.89,2.89,0,0,0,.08-.88,2.13,2.13,0,0,0-.14-.51,2.61,2.61,0,0,0-.24-.54,1.87,1.87,0,0,0-.37-.47h0l2.71-.76a6.36,6.36,0,0,1,.06-.87,4.2,4.2,0,0,1,.08-.62l.06-.53a4.09,4.09,0,0,0,0-.7,4,4,0,0,0-.1-.76,4.33,4.33,0,0,0-.25-.92A3.63,3.63,0,0,0,38,15a2.9,2.9,0,0,0-.43-.55,4.4,4.4,0,0,0-.63-.59,5.85,5.85,0,0,0-1.72-.93,8.06,8.06,0,0,0-1.88-.52,3.84,3.84,0,0,1-.83-.09L32,12.17l-.65-.1A8.48,8.48,0,0,0,30.08,12a6,6,0,0,0-1,0,12.2,12.2,0,0,0-1.48.18,6.32,6.32,0,0,0-1,.29A4.67,4.67,0,0,0,25.82,12.65Z"/><path class="cls-5" d="M16.36,25.75l3.41-.95h0l-.29-.29a1.83,1.83,0,0,1-.53-.83,2.26,2.26,0,0,1-.09-1.43,2,2,0,0,1,.33-.81,2.34,2.34,0,0,1,.49-.39,2.51,2.51,0,0,1,1-.5l.36-.11.46-.12.36.22a4.4,4.4,0,0,1,.51.18,2.22,2.22,0,0,1,.42.25,2.74,2.74,0,0,1,.36.32,2.35,2.35,0,0,1,.41.63,1,1,0,0,1,.11.38,2.24,2.24,0,0,1,.1.37,1.75,1.75,0,0,1,0,.56l-.09.35-.11.33,3.63-.9.76,2.71-.28.07-.43.12-.75.21a2.13,2.13,0,0,0-.46.27,3.11,3.11,0,0,0-.45.22,3.51,3.51,0,0,0-.37.4,2.54,2.54,0,0,0-.54,1.31,2.51,2.51,0,0,0,0,.67,3,3,0,0,0,.26,1l.39.57a3.52,3.52,0,0,0,.41.36,2.66,2.66,0,0,0,.45.29,2.28,2.28,0,0,0,.45.2l.32.09.22-.06.31,0,.23-.06a2.26,2.26,0,0,0,.37-.11l.26-.07h0l-.16.28-.18.26-.28.24-.16.57-.48.14-.19,0-.15,0-.15,0-.19-.11a1.71,1.71,0,0,1-.39-.37l-.06-.22-.07-.26a.42.42,0,0,0,0-.15h0L25,32l-.22.06a1.86,1.86,0,0,1-.9.09,5.49,5.49,0,0,1-.8-.06,4.89,4.89,0,0,1-.84-.2l-.54-.27a2.75,2.75,0,0,1-.6-.48c-.22-.21-.23-.35-.43-.48l-.43-.48-.81-.24a3.49,3.49,0,0,1-1.18-.57,3.12,3.12,0,0,1-.76-.64,7.16,7.16,0,0,1-.39-.66,3,3,0,0,1-.12-.43,2.26,2.26,0,0,1-.21-.77A5.53,5.53,0,0,0,16.36,25.75Z"/><path class="cls-6" d="M28.07,23.36l2.77-.77.14.51a2.39,2.39,0,0,0,.15.54,2.2,2.2,0,0,0,.3.64,3.45,3.45,0,0,0,.45.56c.06.2.34.28.37.32a3.86,3.86,0,0,0,.57.3,3.18,3.18,0,0,0,.6.18,2,2,0,0,0,.65.07l.48,0,.28-.07-.15.2-.23.27-.19.06-.3.43a1.37,1.37,0,0,1-.49.13l-.3.09L32.9,27a2.05,2.05,0,0,1-.55.16l-.5.13-.56.16-.53.17-.64.18-.13.36a.58.58,0,0,0-.1.21,2,2,0,0,0-.12.31l-.25.35a3,3,0,0,0-.22.39l-.17.23,0,.31-.29.36c-.13.29-.09.32-.18.42a.67.67,0,0,1-.39.1,1.2,1.2,0,0,1-.49.14,1.24,1.24,0,0,1-.43,0l-.44-.09a1.35,1.35,0,0,1-.43-.22,1.58,1.58,0,0,1-.39-.29,1.94,1.94,0,0,1-.33-.37l-.1-.36a3.57,3.57,0,0,1-.1-.35L25.45,29c0-.15,0-.31,0-.46a2.35,2.35,0,0,1,.24-.72,2.27,2.27,0,0,1,1-1,1.73,1.73,0,0,1,.43-.12,3.26,3.26,0,0,1,.63-.18l.4-.11.34,0,.26.11.15,0-.05-.2S28.51,25.25,28.07,23.36Z"/><path class="cls-7" d="M37,21.1l.32,1.18.15,0a1.31,1.31,0,0,0,.3-.27l.17-.21.12-.17.2-.2.13,0,0-.11h0a.44.44,0,0,0-.05-.15Z"/></g></g><path class="cls-8" d="M17.6,19.48a14.41,14.41,0,0,0-2.05,3.62c-1.17,3-1.17,6.07-.22,7.22a1.72,1.72,0,0,0,1,.66,1.37,1.37,0,0,0,1.22-.34c.35-.42.11-1,0-1.89a8.61,8.61,0,0,1,.33-3.33A8.36,8.36,0,0,1,19,22.94c.63-.94,1.13-1.23,1.19-2a1.78,1.78,0,0,0-.53-1.46A1.82,1.82,0,0,0,17.6,19.48Z"/><path class="cls-8" d="M18.33,32.09a1.36,1.36,0,0,1,1.16.88,1.44,1.44,0,0,1-.66,1.77,1.45,1.45,0,0,1-2-.71A1.58,1.58,0,0,1,18.33,32.09Z"/><path class="cls-9" d="M22.73,5.49c-.07-.72-.12-1.52-.12-2.39s.05-1.46.12-2.1"/><path class="cls-9" d="M39.34,5.17c.52-.59,1.09-1.2,1.72-1.83s1-1,1.57-1.46"/><path class="cls-9" d="M51.29,19.73a7.55,7.55,0,0,0,2.43-.28A7.93,7.93,0,0,0,56,18.39"/><path class="cls-9" d="M9,15.37,4.62,12.42"/><path class="cls-9" d="M6.31,30.26a16.45,16.45,0,0,1-2.62.39A15.19,15.19,0,0,1,1,30.57"/><text/><text/><polygon class="cls-10" points="183.02 39.33 198.12 39.08 196.14 34.61 185.07 34.72 183.02 39.33"/><polygon class="cls-11" points="180.47 41.78 185.42 41.78 192.91 24.13 191.9 21.74 189.34 21.84 180.47 41.78"/><polygon class="cls-12" points="180.47 41.78 185.42 41.78 192.91 24.13 191.9 21.74 189.34 21.84 180.47 41.78"/><polygon class="cls-13" points="195.93 41.78 200.85 41.78 191.9 21.74 189.34 21.84 188.1 24.66 195.93 41.78"/><polygon class="cls-14" points="60.4 26.23 60.4 30.37 68.94 30.37 68.94 34.6 60.4 34.6 60.4 41.66 55.92 41.66 55.92 21.96 70 21.96 70 26.23 60.4 26.23"/><polygon class="cls-15" points="110.25 21.94 110.25 41.48 105.77 41.48 97.39 28.75 97.39 41.48 92.91 41.48 92.91 21.94 97.39 21.94 105.77 34.67 105.77 21.94 110.25 21.94"/><path class="cls-16" d="M123.47,21.43l-.87,0h0s-10.36.51-9.84,10.55c.49,9.58,9.18,10,10,10h.08a10.09,10.09,0,0,0,9.93-10.26C132.75,25.9,128.87,21.69,123.47,21.43Zm-.65,16.06h-.08a5.53,5.53,0,0,1-5.17-5C117.33,26,122.66,26,122.66,26h0l.29,0c3,0,5.07,2.31,5.07,5.69S125.77,37.49,122.82,37.49Z"/><path class="cls-17" d="M163.35,22.09c-1.38,0-9.55-.08-9.55-.08v19.7h4.51v-6a42.67,42.67,0,0,0,5.76-.08c1.26-.27,5.44-.7,5.45-6.81S164.73,22.09,163.35,22.09Zm0,9.46c-1.71.13-5,.08-5,.08V26.16l4.35.05s2.83-.1,2.85,2.38C165.54,30.89,165,31.43,163.32,31.55Z"/><path class="cls-18" d="M145.24,22.19c-1.41,0-9.79-.08-9.79-.08v19.7h4.62v-6a45.07,45.07,0,0,0,5.92-.08c1.28-.27,5.58-.7,5.59-6.8S146.66,22.19,145.24,22.19Zm0,9.46c-1.75.13-5.14.08-5.14.08V26.26l4.47,0s2.9-.1,2.93,2.38C147.49,31,146.91,31.53,145.21,31.65Z"/><path class="cls-19" d="M85.2,22V32.78c0,2.85-1.3,4.67-3.26,4.83h-.08c-2.27,0-3.76-1.85-3.76-4.85V21.94H73.65V32.76c0,5.65,3.29,9.32,8.21,9.32h.08c4.64-.15,7.72-3.78,7.72-9.3V22Z"/><polygon class="cls-20" points="177.17 41.76 177.16 22.06 172.9 22.06 172.9 22.08 172.87 22.08 172.88 33.23 172.91 33.23 172.91 41.76 177.17 41.76"/></g></g></svg>